#!OML:ASF I:\Actors\actors\Patient Classification 2\Patient 1\Session 1\actor1.ASF
:FULLY-SPECIFIED
:DEGREES
480
root -0.46394 18.649 5.8273 0.811922 -6.19473 -0.587151
lowerback 3.57664 1.16584 -3.24507
upperback -1.42456 1.40802 0.426796
thorax -3.56525 0.779768 2.16607
lowerneck -15.6327 -2.41423 -2.64804
upperneck 18.4995 -3.1073 1.999
head 8.4078 -1.45076 0.741937
rclavicle -1.20979e-015 -1.11319e-014
rhumerus -60.3633 -5.7127 -78.7474
rradius 50.1537
rwrist 3.09418
rhand -7.39552 -44.419
rfingers 7.12502
rthumb 18.4904 -73.5602
lclavicle -1.20979e-015 -1.11319e-014
lhumerus -42.5657 -3.05764 87.7765
lradius 44.5712
lwrist 5.49497
lhand -8.09303 -21.5921
lfingers 7.12502
lthumb 17.8193 7.61149
rfemur 0 0 0
rtibia 0
rfoot 0 0
rtoes 0
lfemur -1.19068 -6.153 -15.225
ltibia 20.4192
lfoot -25.5472 16.2751
ltoes -52.9377
481
root -0.467181 18.6467 5.82812 0.750193 -6.2716 -0.546313
lowerback 3.50694 1.12209 -3.34684
upperback -1.43967 1.34806 0.462851
thorax -3.54135 0.752544 2.26569
lowerneck -15.4581 -2.32368 -2.5925
upperneck 18.4712 -2.96684 1.84324
head 8.35998 -1.39809 0.699046
rclavicle 1.45051e-015 -5.96354e-015
rhumerus -61.3308 -7.59758 -77.2005
rradius 48.2208
rwrist 2.90433
rhand -7.81906 -44.1735
rfingers 7.12502
rthumb 18.0829 -73.3529
lclavicle 1.45051e-015 -5.96354e-015
lhumerus -42.6148 -3.28213 88.2386
lradius 44.8582
lwrist 5.44717
lhand -7.94782 -21.6878
lfingers 7.12502
lthumb 17.9591 7.50306
rfemur 0 0 0
rtibia 0
rfoot 0 0
rtoes 0
lfemur -1.09446 -6.17865 -15.2852
ltibia 20.397
lfoot -25.5714 16.3629
ltoes -53.0239
482
root -0.468803 18.6454 5.82907 0.750529 -6.33217 -0.508777
lowerback 3.34666 1.06888 -3.41305
upperback -1.44411 1.28094 0.502529
thorax -3.45364 0.719793 2.35113
lowerneck -15.3006 -2.21556 -2.51385
upperneck 18.398 -2.80523 1.6813
head 8.29958 -1.33411 0.652565
rclavicle -1.98148e-014 3.18055e-015
rhumerus -62.0406 -9.21423 -75.7238
rradius 46.0922
rwrist 2.81215
rhand -8.13238 -44.0901
rfingers 7.12502
rthumb 17.7815 -73.2971
lclavicle -1.98148e-014 3.18055e-015
lhumerus -42.6723 -3.47808 88.709
lradius 45.1683
lwrist 5.46969
lhand -7.86043 -21.8732
lfingers 7.12502
lthumb 18.0431 7.30984
rfemur 0 0 0
rtibia 0
rfoot 0 0
rtoes 0
lfemur -1.07134 -6.2559 -15.3431
ltibia 20.3787
lfoot -25.6506 16.426
ltoes -53.038
483
root -0.469513 18.645 5.8283 0.765658 -6.39346 -0.488719
lowerback 3.19072 1.02787 -3.43995
upperback -1.44194 1.23182 0.536255
thorax -3.36146 0.6948 2.40688
lowerneck -14.9413 -2.03619 -2.56209
upperneck 18.0623 -2.58481 1.8497
head 8.12064 -1.21865 0.745998
rclavicle 7.21216e-015 -6.36111e-015
rhumerus -62.8879 -10.8126 -74.1711
rradius 44.4595
rwrist 3.21356
rhand -8.17684 -44.2487
rfingers 7.12502
rthumb 17.7387 -73.4596
lclavicle 7.21216e-015 -6.36111e-015
lhumerus -42.7656 -3.77215 89.2156
lradius 45.534
lwrist 5.63606
lhand -7.91694 -21.9378
lfingers 7.12502
lthumb 17.9888 7.25033
rfemur 0 0 0
rtibia 0
rfoot 0 0
rtoes 0
lfemur -1.06941 -6.36812 -15.3867
ltibia 20.3666
lfoot -25.718 16.528
ltoes -52.9523
484
root -0.469803 18.6446 5.82667 0.750935 -6.44952 -0.505951
lowerback 3.06772 0.998371 -3.39502
upperback -1.41526 1.2002 0.564133
thorax -3.26181 0.676382 2.41464
lowerneck -14.3324 -1.79906 -2.7502
upperneck 17.4204 -2.31189 2.30987
head 7.7999 -1.0609 0.964912
rclavicle -9.17826e-016 -4.17448e-015
rhumerus -63.616 -12.0314 -72.8943
rradius 42.9821
rwrist 3.76608
rhand -8.23715 -44.5401
rfingers 7.12502
rthumb 17.6806 -73.7563
lclavicle -9.17826e-016 -4.17448e-015
lhumerus -42.7836 -4.01086 89.6863
lradius 45.7729
lwrist 5.78013
lhand -8.00941 -21.949
lfingers 7.12502
lthumb 17.8998 7.24729
rfemur 0 0 0
rtibia 0
rfoot 0 0
rtoes 0
lfemur -1.03306 -6.50733 -15.3971
ltibia 20.3565
lfoot -25.7729 16.6867
ltoes -52.8678
485
root -0.469612 18.6442 5.82517 0.700855 -6.48778 -0.548062
lowerback 2.93627 0.964421 -3.30369
upperback -1.33616 1.16555 0.59768
thorax -3.10211 0.653872 2.40283
lowerneck -14.0118 -1.63236 -2.8626
upperneck 17.029 -2.10241 2.53479
head 7.61177 -0.949494 1.08175
rclavicle -8.44835e-015 -7.45443e-015
rhumerus -64.1423 -12.9311 -71.9049
rradius 41.6703
rwrist 4.52186
rhand -8.22491 -44.8593
rfingers 7.12502
rthumb 17.6924 -74.0744
lclavicle -8.44835e-015 -7.45443e-015
lhumerus -42.666 -4.16499 90.1156
lradius 45.8663
lwrist 5.84374
lhand -8.02531 -21.9829
lfingers 7.12502
lthumb 17.8845 7.21473
rfemur 0 0 0
rtibia 0
rfoot 0 0
rtoes 0
lfemur -0.956353 -6.59742 -15.3785
ltibia 20.3467
lfoot -25.8441 16.7794
ltoes -52.8408
486
root -0.468889 18.6428 5.82266 0.631704 -6.51593 -0.556576
lowerback 2.83835 0.936607 -3.26697
upperback -1.26191 1.13521 0.629738
thorax -2.968 0.635152 2.41916
lowerneck -13.934 -1.53063 -2.74918
upperneck 16.9285 -1.95809 2.38157
head 7.55807 -0.888497 1.02828
rclavicle -1.49384e-014 -5.96354e-016
rhumerus -64.5934 -13.5441 -71.1883
rradius 40.6295
rwrist 5.46171
rhand -8.08684 -45.1002
rfingers 7.12502
rthumb 17.8253 -74.3032
lclavicle -1.49384e-014 -5.96354e-016
lhumerus -42.5728 -4.38952 90.5642
lradius 45.9124
lwrist 5.98712
lhand -7.96453 -22.0152
lfingers 7.12502
lthumb 17.943 7.17707
rfemur 0 0 0
rtibia 0
rfoot 0 0
rtoes 0
lfemur -0.860167 -6.58987 -15.3842
ltibia 20.304
lfoot -25.8712 16.7621
ltoes -52.8304
487
root -0.467473 18.6414 5.8196 0.568806 -6.5482 -0.546583
lowerback 2.7826 0.927304 -3.27469
upperback -1.23687 1.12582 0.669738
thorax -2.91111 0.629762 2.46634
lowerneck -13.7783 -1.44456 -2.54338
upperneck 16.8581 -1.84213 2.14464
head 7.50005 -0.843411 0.929466
rclavicle -1.37006e-014 3.08116e-015
rhumerus -65.0984 -13.824 -70.802
rradius 40.0358
rwrist 6.32792
rhand -7.96766 -45.225
rfingers 7.12502
rthumb 17.94 -74.4176
lclavicle -1.37006e-014 3.08116e-015
lhumerus -42.5878 -4.65772 91.0341
lradius 45.901
lwrist 6.16077
lhand -7.79207 -22.0152
lfingers 7.12502
lthumb 18.1089 7.16181
rfemur 0 0 0
rtibia 0
rfoot 0 0
rtoes 0
lfemur -0.76163 -6.68594 -15.4263
ltibia 20.2506
lfoot -25.9395 16.8287
ltoes -52.7475
